<svg width="16" height="16" viewBox="0 0 16 16" fill="none" xmlns="http://www.w3.org/2000/svg">
    <circle cx="8" cy="8" r="8" fill="white"/>
    <path d="M6 2.02C6 2.01057 6 2.00586 6.00293 2.00293C6.00586 2 6.01057 2 6.02 2H9.98C9.98943 2 9.99414 2 9.99707 2.00293C10 2.00586 10 2.01057 10 2.02V5.98C10 5.98943 10 5.99414 10.0029 5.99707C10.0059 6 10.0106 6 10.02 6H13.98C13.9894 6 13.9941 6 13.9971 6.00293C14 6.00586 14 6.01057 14 6.02V9.98C14 9.98943 14 9.99414 13.9971 9.99707C13.9941 10 13.9894 10 13.98 10H10.02C10.0106 10 10.0059 10 10.0029 10.0029C10 10.0059 10 10.0106 10 10.02V13.98C10 13.9894 10 13.9941 9.99707 13.9971C9.99414 14 9.98943 14 9.98 14H6.02C6.01057 14 6.00586 14 6.00293 13.9971C6 13.9941 6 13.9894 6 13.98V10.02C6 10.0106 6 10.0059 5.99707 10.0029C5.99414 10 5.98943 10 5.98 10H2.02C2.01057 10 2.00586 10 2.00293 9.99707C2 9.99414 2 9.98943 2 9.98V6.02C2 6.01057 2 6.00586 2.00293 6.00293C2.00586 6 2.01057 6 2.02 6H5.98C5.98943 6 5.99414 6 5.99707 5.99707C6 5.99414 6 5.98943 6 5.98V2.02Z" fill="#BB86FC" stroke="#1E1E1E" stroke-width="0.5"/>
</svg>
